<svg xmlns="http://www.w3.org/2000/svg" height="800" width="1200" version="1.0" viewBox="-14.881905 -10.51525 128.97651 63.0915"><path d="M56.725 3.0065c.446-.65.979-1.195 1.591-1.633.628-.445 1.341-.778 2.135-.997.743-.204 1.589-.307 3.058-.307h35.612l-10.23 36.355c-1.035 3.675-3.554 5.567-7.361 5.567l-29.944-.001c-1.576 0-2.261-.156-2.887-.441-.57-.262-1.03-.632-1.376-1.088-.4-.528-.641-1.157-.707-1.875-.059-.62-.004-1.244.394-2.659l8.354-29.686c.478-1.707.852-2.495 1.361-3.235" fill="#A7A9AC"/><path d="M56.725 3.0065c.446-.65.979-1.195 1.591-1.633.628-.445 1.341-.778 2.135-.997.743-.204 1.589-.307 3.058-.307h35.612l-10.23 36.355c-1.035 3.675-3.554 5.567-7.361 5.567l-29.944-.001c-1.576 0-2.261-.156-2.887-.441-.57-.262-1.03-.632-1.376-1.088-.4-.528-.641-1.157-.707-1.875-.059-.62-.004-1.244.394-2.659l8.354-29.686c.478-1.707.852-2.495 1.361-3.235z" stroke-width=".139" stroke="#A7A9AC" fill="none"/><path d="M48.695 36.4795l8.409-29.894c.392-1.386.664-1.974 1.036-2.543.366-.559.805-1.012 1.314-1.364.47-.323 1.001-.563 1.594-.722.594-.159 1.344-.236 2.479-.236l33.287.001-9.641 34.257c-.846 3.005-2.76 4.361-5.771 4.361H51.598c-1.047 0-1.512-.072-1.897-.215-.385-.142-.688-.354-.908-.63-.239-.302-.378-.681-.411-1.132-.03-.402.009-.802.313-1.883" fill="#ED1B2F"/><path d="M48.695 36.4795l8.409-29.894c.392-1.386.664-1.974 1.036-2.543.366-.559.805-1.012 1.314-1.364.47-.323 1.001-.563 1.594-.722.594-.159 1.344-.236 2.479-.236l33.287.001-9.641 34.257c-.846 3.005-2.76 4.361-5.771 4.361H51.598c-1.047 0-1.512-.072-1.897-.215-.385-.142-.688-.354-.908-.63-.239-.302-.378-.681-.411-1.132-.03-.402.009-.802.313-1.883z" stroke-width=".139" stroke="#ED1B2F" fill="none"/><path d="M10.2 3.0065c.445-.65.978-1.195 1.591-1.633.627-.445 1.34-.778 2.134-.997.744-.204 1.59-.307 3.06-.307h35.611l-10.23 36.355c-1.034 3.675-3.554 5.567-7.361 5.567H5.061c-1.576 0-2.263-.156-2.888-.441-.571-.262-1.031-.632-1.376-1.088-.4-.528-.64-1.157-.708-1.875-.058-.62-.004-1.244.395-2.659l8.354-29.686c.479-1.708.853-2.496 1.362-3.236" fill="#A7A9AC"/><path d="M10.2 3.0065c.445-.65.978-1.195 1.591-1.633.627-.445 1.34-.778 2.134-.997.744-.204 1.59-.307 3.06-.307h35.611l-10.23 36.355c-1.034 3.675-3.554 5.567-7.361 5.567H5.061c-1.576 0-2.263-.156-2.888-.441-.571-.262-1.031-.632-1.376-1.088-.4-.528-.64-1.157-.708-1.875-.058-.62-.004-1.244.395-2.659l8.354-29.686c.479-1.708.853-2.496 1.362-3.236z" stroke-width=".139" stroke="#A7A9AC" fill="none"/><path d="M2.169 36.4795l8.412-29.894c.39-1.386.663-1.974 1.035-2.543.365-.559.804-1.012 1.313-1.364.47-.323 1.001-.563 1.595-.722.594-.159 1.344-.236 2.479-.236l33.287.001-9.641 34.257c-.846 3.005-2.759 4.361-5.771 4.361H5.073c-1.047 0-1.514-.072-1.898-.215-.384-.142-.688-.354-.908-.63-.239-.302-.379-.681-.412-1.132-.029-.402.01-.802.314-1.883" fill="#00377C"/><path d="M2.169 36.4795l8.412-29.894c.39-1.386.663-1.974 1.035-2.543.365-.559.804-1.012 1.313-1.364.47-.323 1.001-.563 1.595-.722.594-.159 1.344-.236 2.479-.236l33.287.001-9.641 34.257c-.846 3.005-2.759 4.361-5.771 4.361H5.073c-1.047 0-1.514-.072-1.898-.215-.384-.142-.688-.354-.908-.63-.239-.302-.379-.681-.412-1.132-.029-.402.01-.802.314-1.883z" stroke-width=".139" stroke="#00377C" fill="none"/><path d="M9.966 29.3895l-1.573 5.592H5.367l1.644-5.854c.259-.92.773-1.412 1.777-1.412h11.111c1.007.002 1.325.64 1.076 1.525l-1.611 5.741h-3.032l1.571-5.592h-2.45l-1.571 5.592h-3.039l1.573-5.592h-2.45m20.088 4.067l1.145-4.066h-4.308l-1.104 3.919h2.553l-.476 1.683h-4.077c-1.007 0-1.326-.639-1.076-1.527l1.152-4.074h-1.916l.472-1.675h1.916l.317-1.121 3.293-.943-.584 2.064h7.358l-1.578 5.594h2.454l1.575-5.594h3.028l-1.645 5.855c-.258.92-.772 1.412-1.776 1.412H31.13c-1.006-.002-1.325-.64-1.076-1.527" fill="#FFF"/></svg>